# xmcd
#
# Track frame offsets:
#	183
#	10813
#	23163
#	36253
#	49143
#	57675
#	67270
#	76898
#	87200
#	100748
#	112635
#	124115
#	136160
#	148295
#	156693
#	165933
#	179925
#	190905
#	203290
#	214803
#
# Disc length: 3010
#
# Revision: 1
# Processed by: cddbd v1.5.1PL0 Copyright (c) Steve Scherf et al.
# Submitted via: dBpowerAMP V4.0
# Normalized: r0:DSETVAR1,TDELIM( - )
#
DISCID=1d0bc014
DTITLE=Various Artist - Country and Western originals vol 2
DYEAR=1989
DGENRE=Country
TTITLE0=Miller Roger - King of the road
TTITLE1=Cash Johnny - I walk the line
TTITLE2=Anderson Lynn - Rose garden
TTITLE3=Rodgers Kenny - Ruby, don't take your love to town
TTITLE4=Jennings Waylon - Abilene
TTITLE5=Flatt and Scruggs - Foggy mountain breakdown
TTITLE6=Mandrell Barbara - Release me
TTITLE7=Perkins Carl - Daddy sang bass
TTITLE8=Nelson Willie - The last letter
TTITLE9=Parton Dolly - Making believe
TTITLE10=Jones George - White lightning
TTITLE11=Fender Freddy - Wasted days and wasted nights
TTITLE12=Parton Dolly - Two little orpheans
TTITLE13=Cash Johnny - Country boy
TTITLE14=Twitty Conway - This road that I walk
TTITLE15=Jones George - A good year for the roses
TTITLE16=Patsy Cline - Stop the world and let me off
TTITLE17=Cash Johnny - Folsom prison blues
TTITLE18=Laine Frankie - Mule train
TTITLE19=Cash Johnny - I love you because
EXTD=
EXTT0=
EXTT1=
EXTT2=
EXTT3=
EXTT4=
EXTT5=
EXTT6=
EXTT7=
EXTT8=
EXTT9=
EXTT10=
EXTT11=
EXTT12=
EXTT13=
EXTT14=
EXTT15=
EXTT16=
EXTT17=
EXTT18=
EXTT19=
PLAYORDER=
